<svg version="1.1" id="Layer_1" xmlns="http://www.w3.org/2000/svg" xmlns:xlink="http://www.w3.org/1999/xlink" x="0px" y="0px"
	 viewBox="0 0 58.4 65.6" style="enable-background:new 0 0 58.4 65.6;" xml:space="preserve">
<g>
	<g>
		<path style="fill-rule:evenodd;clip-rule:evenodd;fill:#ffffff;" d="M51.1,49.2c0.8-0.5,1.5-1,2.3-1.4c0.8-0.5,1.6-1.1,2.6-1
			c1.5,0.1,2.7,1.6,2.3,3.1c-0.2,0.8-0.7,1.4-1.4,1.8c-1.7,1.1-3.4,2.1-5.2,3.2c-1.2,0.7-2.4,1.5-3.6,2.2c-0.6-1-1.2-2-1.8-3.1
			c-0.9-1.5-1.8-3.1-2.8-4.6c-0.9-1.6-1.9-3.1-2.9-4.7c-0.7-1.1-1.3-2.2-1.9-3.3c-0.1-0.1-0.2-0.1-0.3-0.2c-0.1,0-0.2,0-0.3,0
			c-6,0-12,0-18,0c-1.3,0-2.5-0.2-3.6-0.9c-1.3-0.8-2.2-2-2.5-3.5c-0.2-1.1-0.2-2.3-0.3-3.5c-0.1-1.4-0.2-2.8-0.3-4.2
			c-0.1-1.6-0.2-3.1-0.3-4.7c-0.1-1.2-0.2-2.4-0.2-3.6c0-1.2-0.3-2.4,0-3.6c0.3-1.3,0.9-2.4,2-3.3c0.9-0.8,2-1.2,3.2-1.3
			c1.3-0.1,2.5,0.3,3.5,1c1.1,0.8,1.8,1.8,2.1,3c0.2,0.8,0.2,1.6,0.3,2.4c0.1,1.5,0.2,3,0.3,4.6c0,0.5,0.3,0.4,0.5,0.4
			c1.1,0,2.3,0,3.4,0c2.3,0,4.5,0,6.8,0c0.2,0,0.4,0,0.6,0c1.3,0.2,2.2,1.4,2.2,2.7c-0.1,1.2-1,2.2-2.2,2.4
			c-0.5,0.1-1.1,0.1-1.6,0.1c-3,0-5.9,0-8.9,0c-0.1,0-0.3,0-0.5,0c0,0.8,0.1,1.5,0.1,2.2c0,0.3,0,0.6,0,0.9c0,0.1,0.1,0.2,0.2,0.2
			c1.1,0,2.2,0,3.3,0c0.9,0,1.9,0,2.9,0c1.3,0,2.6,0,3.8,0c1.4,0,2.8-0.1,4.3,0c1.4,0,2.4,0.7,3.1,1.9c0.7,1.3,1.5,2.5,2.3,3.8
			c0.9,1.5,1.8,3,2.7,4.5c0.7,1.2,1.5,2.5,2.2,3.7C50,47.3,50.6,48.2,51.1,49.2z"/>
		<path style="fill-rule:evenodd;clip-rule:evenodd;fill:#ffffff;" d="M10.7,25.4c0,0.5,0.1,1.1,0.1,1.6c0,0.9,0,1.8,0.1,2.8
			c0.1,0.5-0.1,0.9-0.5,1.2c-1.9,1.5-3.3,3.4-4.3,5.6c-1,2-1.5,4.2-1.7,6.4c-0.1,1.6,0,3.1,0.4,4.6c0.5,2.3,1.4,4.4,2.8,6.3
			c1,1.4,2.1,2.5,3.4,3.6c2,1.6,4.3,2.7,6.9,3.3c1.9,0.5,3.9,0.5,5.9,0.3c2.1-0.2,4.1-0.8,5.9-1.8c1.5-0.8,2.9-1.8,4.1-3
			c1.5-1.4,2.7-3.1,3.6-5c0.7-1.4,1.2-2.9,1.4-4.4c0-0.1,0-0.2,0.1-0.3c0.6,1.1,1.3,2.1,1.9,3.2c0.4,0.6,0.7,1.2,1.1,1.8
			c0.1,0.2,0.1,0.4,0,0.6c-0.9,2-2,3.9-3.4,5.5c-1.1,1.3-2.3,2.5-3.7,3.5c-1.5,1.1-3.1,2-4.8,2.7c-1.4,0.6-2.8,1-4.3,1.3
			c-1.9,0.3-3.8,0.4-5.7,0.3c-1.6-0.1-3.2-0.4-4.7-0.9c-1.8-0.6-3.5-1.3-5.1-2.3c-1.5-1-2.9-2.1-4.2-3.4c-1.4-1.4-2.6-3.1-3.5-4.8
			c-0.9-1.7-1.6-3.5-2-5.4c-0.4-1.8-0.6-3.7-0.5-5.6c0.1-1.7,0.3-3.3,0.8-4.9C1.1,37.1,1.5,36,2,34.9c0.6-1.2,1.3-2.4,2-3.5
			c0.9-1.4,2.1-2.6,3.4-3.7c1-0.9,2.1-1.6,3.2-2.5C10.6,25.3,10.7,25.3,10.7,25.4z"/>
		<path style="fill-rule:evenodd;clip-rule:evenodd;fill:#ffffff;" d="M18,11.4c-3.1,0-5.8-2.6-5.8-5.8c0.1-3.2,2.6-5.7,5.9-5.7
			c3.2,0.1,5.5,2.5,5.6,5.6C23.9,8.9,21.2,11.4,18,11.4z"/>
	</g>
</g>
</svg>
