<svg version="1.1" id="Layer_1" xmlns="http://www.w3.org/2000/svg" xmlns:xlink="http://www.w3.org/1999/xlink" x="0px" y="0px"
	 viewBox="0 0 110.4 105" style="enable-background:new 0 0 110.4 105;" xml:space="preserve">
<path id="Path_270" style="fill:#ffffff;" d="M25.9,38.2c1.1-1.3,2.4-2.4,4-3.2c1-0.5,6-1.7,9.5-2c4.4-0.3,8.8-0.4,13.2-0.4h0V30H52
	c-6.1,0-12.2,0.3-18.2,1c-5.1,0.5-9,2.5-11.1,7.4c-0.1,0.2-0.2,0.3-0.2,0.5c-1.8,4-3.3,8.1-4.4,12.3c-0.1,0.3-0.2,0.7-0.4,0.8
	c-0.7,0.1-1.4,0.2-2.1,0.3c0.1-1.1,0.1-2,0.2-2.9c0-1.2-0.5-1.9-1.8-2c-1.1-0.1-2.1,0-3.1,0.2c-2,0.4-3.1,1.7-3.5,3.7
	c-0.3,1.5,0.2,2.3,1.7,2.6c1.2,0.2,2.3,0.3,3.5,0.4c0.9-0.1,1.8-0.2,2.7-0.4c0.3,0,0.7,0.1,0.9,0.3c0.1,0.3,0.1,0.6,0,0.8
	c-0.5,0.9-1,1.8-1.5,2.8c-1.2,2.4-1.8,5.1-1.8,7.8c-0.1,0.8-0.3,1.6-0.6,2.4c-0.2,0.8-0.7,1.6-0.8,2.4c-0.1,2.1-0.1,4.3-0.1,6.4
	c0,1.9,0.3,3.7,0.2,5.6c0,5.7-0.1,11.4-0.2,17c0,0.6,0.1,1.1,0.2,1.7c0.4,1.4,1.2,2,2.6,2c1.4,0,2.8-0.1,4.1,0
	c2.2,0.1,2.6-0.9,2.8-2.6c0.1-0.9,0-1.8,0-2.7c1.5,0,2.8,0,4.2,0c0.5,0,1-0.1,1.4-0.4c0.9-0.7,2-1,3-0.9c7.6,0,15.1,0,22.7,0h0v-5.8
	h0c-2.5,0-5.1-0.1-7.6-0.1c-5.9-0.2-11.8-0.6-17.7-1c-0.9-0.1-1.8-0.2-2.6-0.5c-1-0.3-2-0.7-2.1-1.9c-0.1-1,1-2.6,2-2.9
	c0.6-0.2,1.2-0.2,1.8-0.2c8.5,0,17,0,25.5,0h0.9v-8h0c-3.8,0.1-7.6-0.1-11.4-0.6c-2.1-0.2-4.2-0.9-6.1-1.9c-2.3-1.3-3.8-3.9-3.7-6.5
	c-0.1-0.5,0.3-1.1,0.8-1.2c0,0,0.1,0,0.1,0c0.6-0.1,1.3-0.2,1.9-0.2c5.9,0,11.8,0,17.8,0h0.6V53.4h0c-7.9,0-15.8,0.1-23.7,0.1
	c-2.5,0-4.9-0.1-7.4-0.2c-0.5,0-1-0.1-1.7-0.2c0.7-2.3,1.3-4.5,2-6.7C22.8,43.4,23.8,40.6,25.9,38.2z M24.3,75.4c-0.4,0-0.7,0-1.1,0
	v0l-3-0.2c-0.2,0-0.3,0-0.5-0.1c-0.6-0.2-1.3-0.4-1.1-1.1c0.1-0.3,0.9-0.6,1.4-0.6c1.5,0,2.9,0.2,4.4,0.3c0.6,0,1.2,0.1,1.1,0.8
	C25.5,75.1,25,75.4,24.3,75.4L24.3,75.4z M20.6,59.8c2.5-0.2,5,0.4,7.2,1.7c1.6,0.9,2,2.6,2.2,4.2c0.1,1.1,0.2,2.3,0.2,3.4
	c0.1,1.8-0.7,2.6-2.5,2.7c-0.4,0-0.8,0-1.2,0c0,0,0,0.1,0,0.1c-1.8-0.2-3.6-0.3-5.3-0.6c-2.9-0.6-3.9-1.6-4.1-4.5
	c-0.1-1.3,0-2.5,0.2-3.8C17.5,61,18.6,60,20.6,59.8L20.6,59.8z"/>
<g id="Group_183" transform="translate(218.052 521.295)">
	<path id="Path_271" style="fill:#ffffff;" d="M-172.9-416.3H-217c-0.6,0-1-0.4-1.1-1c0-0.6,0.4-1,1-1.1c0,0,0.1,0,0.1,0h44.1
		c0.6,0,1,0.4,1.1,1c0,0.6-0.4,1-1,1.1C-172.8-416.3-172.8-416.3-172.9-416.3z"/>
</g>
<g id="Group_184" transform="translate(359.009 493.181)">
	<path id="Path_272" style="fill:#ffffff;" d="M-272.6-393h-10.2c-0.6,0-1-0.5-1-1v-10.2c0-0.6,0.5-1,1-1h10.2c0.6,0,1,0.5,1,1v10.2
		C-271.5-393.5-272-393-272.6-393z M-281.7-395.1h8.1v-8.1h-8.1V-395.1z"/>
</g>
<g id="Group_185" transform="translate(315.277 328.353)">
	<path id="Path_273" style="fill:#ffffff;" d="M-214-223.4h-40.2c-5,0-9.1-4.1-9.1-9.1v-86.8c0-5,4.1-9.1,9.1-9.1h40.2
		c5,0,9.1,4.1,9.1,9.1v86.8C-204.9-227.4-208.9-223.4-214-223.4z M-254.2-326.3c-3.9,0-7.1,3.2-7.1,7.1v86.8c0,3.9,3.2,7.1,7.1,7.1
		h40.2c3.9,0,7.1-3.2,7.1-7.1v-86.8c0-3.9-3.2-7.1-7.1-7.1H-254.2z"/>
</g>
<g id="Group_186" transform="translate(330.001 350.775)">
	<path id="Path_274" style="fill:#ffffff;" d="M-229-265.5h-40.2c-0.6,0-1-0.5-1-1v-71.3c0-0.6,0.5-1,1-1h40.2c0.6,0,1,0.5,1,1v71.3
		C-228-266-228.4-265.5-229-265.5z M-268.2-267.5h38.2v-69.2h-38.2V-267.5z"/>
</g>
<g id="Group_187" transform="translate(340.043 340.735)">
	<path id="Path_275" style="fill:#ffffff;" d="M-243.5-332.1h-30.4c-0.6,0-1-0.5-1-1.1c0-0.5,0.4-0.9,1-1h30.4c0.6,0,1,0.4,1.1,1
		c0,0.6-0.4,1-1,1.1C-243.4-332.1-243.5-332.1-243.5-332.1z"/>
</g>
<g id="Group_188" transform="translate(349.205 393.026)">
	<path id="Path_276" style="fill:#ffffff;" d="M-279.1-327.8v-30.7h11c3.6,0,6.3,0.8,8.1,2.3c1.8,1.5,2.7,3.8,2.7,6.9
		c0,3-0.9,5.3-2.6,6.8c-1.7,1.6-4.3,2.3-7.6,2.3h-5.7v12.4L-279.1-327.8z M-273.3-345.1h4.3c2.1,0,3.6-0.3,4.5-1
		c0.9-0.7,1.3-1.8,1.3-3.3c0-1.6-0.4-2.7-1.3-3.3c-0.9-0.7-2.4-1-4.5-1h-4.3V-345.1z"/>
</g>
</svg>
