<svg version="1.1" id="Layer_1" xmlns="http://www.w3.org/2000/svg" xmlns:xlink="http://www.w3.org/1999/xlink" x="0px" y="0px"
	 viewBox="0 0 128.9 115.5" style="enable-background:new 0 0 128.9 115.5;" xml:space="preserve">
<g>
	<path style="fill:#ffffff;" d="M94.4,41.9V15.2h9.5c3.1,0,5.5,0.7,7,2c1.5,1.3,2.3,3.3,2.3,6c0,2.6-0.8,4.6-2.3,5.9
		c-1.5,1.4-3.7,2-6.6,2h-4.9v10.8H94.4z M99.5,26.9h3.7c1.8,0,3.1-0.3,3.9-0.9c0.8-0.6,1.1-1.5,1.1-2.9c0-1.4-0.4-2.3-1.1-2.9
		c-0.8-0.6-2.1-0.9-3.9-0.9h-3.7V26.9z"/>
</g>
<g>
	<path style="fill:#ffffff;" d="M56,98.4V71.7h9.5c3.1,0,5.5,0.7,7,2c1.5,1.3,2.3,3.3,2.3,6c0,2.6-0.8,4.6-2.3,5.9
		c-1.5,1.4-3.7,2-6.6,2h-4.9v10.8H56z M61.1,83.4h3.7c1.8,0,3.1-0.3,3.9-0.9c0.8-0.6,1.1-1.5,1.1-2.9c0-1.4-0.4-2.3-1.1-2.9
		c-0.8-0.6-2.1-0.9-3.9-0.9h-3.7V83.4z"/>
</g>
<path style="fill:#ffffff;" d="M40,93.2c-0.2-0.3-0.4-0.1-0.6,0c-0.5,0.2-1,0.4-1.5,0.6c0-0.2-0.1-0.4-0.1-0.6c0-3.1,0-6.1,0-9.2
	c0-2.6,0-5.2,0-7.8c0-0.3,0.1-0.6,0.2-1c0-0.2,0.1-0.4,0.1-0.5c0-1.6,0-3.3,0-4.9c0-0.3-0.2-0.6-0.2-0.8c0-0.2-0.1-0.3-0.1-0.5
	c0-0.6,0-1.1,0-1.7c-0.1-2.1-1.6-3.7-3.7-3.8c-2.4-0.1-4.9-0.2-7.3-0.2c-2.4,0-4.9,0.1-7.3,0.2c-2.1,0.1-3.6,1.7-3.7,3.8
	c0,0.6,0,1.1,0,1.7c0,0.2-0.1,0.3-0.1,0.5c-0.1,0.3-0.2,0.6-0.2,0.8c0,1.6,0,3.3,0,4.9c0,0.2,0,0.4,0.1,0.5c0.1,0.3,0.2,0.6,0.2,1
	c0,2.6,0,5.2,0,7.8c0,3.1,0,6.1,0,9.2c0,0.2,0,0.4-0.1,0.6c-0.5-0.2-1-0.5-1.5-0.6c-0.2-0.1-0.4-0.3-0.6,0c-0.2,0.3-0.2,0.7,0.1,0.9
	c0.2,0.1,0.4,0.2,0.6,0.3c0.4,0.1,0.8,0.3,1.3,0.4c0.1,0,0.2,0.1,0.2,0.1c0,0.5,0,1,0,1.4c0,0.3-0.2,0.6-0.2,1c0,1.6,0,3.1,0,4.7
	c0,0.2,0,0.4,0.1,0.7c0.1,0.4,0.3,0.7,0.3,1.1c0.2,2.9,2.9,5.4,5.7,5.3c1.8,0,3.5-0.1,5.3-0.1c1.8,0,3.5,0,5.3,0.1
	c2.8,0.1,5.5-2.5,5.7-5.3c0-0.4,0.2-0.7,0.3-1.1c0-0.2,0.1-0.4,0.1-0.7c0-1.6,0-3.1,0-4.7c0-0.3-0.2-0.6-0.2-1c-0.1-0.5,0-1,0-1.4
	c0,0,0.2-0.1,0.2-0.1c0.4-0.1,0.8-0.2,1.3-0.4c0.2-0.1,0.4-0.2,0.6-0.3C40.2,93.9,40.2,93.6,40,93.2z M17.7,67
	c0-1.3,0.6-2.1,1.9-2.3c1.1-0.2,2.1-0.3,3.2-0.4c1.3-0.1,2.6-0.1,3.9-0.1c1.3,0,2.6,0,3.9,0.1c1.1,0.1,2.1,0.2,3.2,0.4
	c1.3,0.2,1.9,1,1.9,2.3c0,0.4,0,0.9,0,1.3c-0.8-0.1-1.6-0.3-2.3-0.4c-2.2-0.4-4.4-0.5-6.7-0.5c-2.2,0-4.5,0.1-6.7,0.5
	c-0.8,0.1-1.5,0.3-2.3,0.4C17.7,67.8,17.7,67.4,17.7,67z M16.6,75.9c0-1.2,0-2.3,0-3.5c0-0.7,0.3-0.9,1.1-1V81c-0.3,0-0.6,0-0.9-0.1
	c-0.1,0-0.2-0.2-0.2-0.4C16.6,79,16.6,77.5,16.6,75.9z M16.6,94.1V82c0.4,0,0.7,0,1-0.1c0.3,4.1-0.3,8.2-0.9,12.2
	C16.7,94.1,16.6,94.1,16.6,94.1z M17.4,106.6c-0.1-0.2-0.3-0.6,0.2-0.7c0.1,0,0.1-0.2,0.1-0.3c0-0.4-0.1-0.8-0.1-1.3
	c0,0,0.1,0,0.1-0.1c0.6,0.3,1.2,0.6,1.4,1.3c0.2,0.7,0.5,1.4,0.8,2C19,107.9,17.7,107.3,17.4,106.6z M31,97.9
	C29.6,98,28.2,98,26.8,98c-1.4,0-2.9,0-4.3-0.1c-1.2-0.1-2.3-0.3-3.5-0.6c-1.1-0.2-1.5-0.9-1.4-1.9c0.3-2.2,0.6-4.5,0.9-6.7
	c0,0,0-0.1,0.1-0.1c2.7,0.4,5.5,0.6,8.2,0.5c2.7,0,5.5-0.1,8.2-0.5c0,0,0.1,0.1,0.1,0.1c0.3,2.2,0.6,4.5,0.9,6.7
	c0.1,1.1-0.3,1.7-1.4,1.9C33.4,97.6,32.2,97.9,31,97.9z M36.2,106.6c-0.4,0.8-1.6,1.3-2.5,1.1c0.3-0.7,0.5-1.3,0.8-2
	c0.2-0.7,0.8-1,1.4-1.3c0,0,0.1,0,0.1,0.1c0,0.4-0.1,0.8-0.1,1.3c0,0.1,0.1,0.3,0.1,0.3C36.5,106,36.3,106.3,36.2,106.6z M36.9,94.1
	c0,0-0.1,0-0.1,0c-0.6-4-1.2-8-0.9-12.2c0.3,0,0.6,0,1,0.1V94.1z M36.9,75.9c0,1.6,0,3.2,0,4.8c0,0.1-0.1,0.3-0.2,0.4
	c-0.3,0.1-0.6,0-0.9,0.1v-9.7c0.8,0.1,1.1,0.4,1.1,1C36.9,73.5,37,74.7,36.9,75.9z"/>
<path style="fill:#ffffff;" d="M117.3,93.2c-0.2-0.3-0.4-0.1-0.6,0c-0.5,0.2-1,0.4-1.5,0.6c0-0.2-0.1-0.4-0.1-0.6c0-3.1,0-6.1,0-9.2
	c0-2.6,0-5.2,0-7.8c0-0.3,0.1-0.6,0.2-1c0-0.2,0.1-0.4,0.1-0.5c0-1.6,0-3.3,0-4.9c0-0.3-0.2-0.6-0.2-0.8c0-0.2-0.1-0.3-0.1-0.5
	c0-0.6,0-1.1,0-1.7c-0.1-2.1-1.6-3.7-3.7-3.8c-2.4-0.1-4.9-0.2-7.3-0.2c-2.4,0-4.9,0.1-7.3,0.2c-2.1,0.1-3.6,1.7-3.7,3.8
	c0,0.6,0,1.1,0,1.7c0,0.2-0.1,0.3-0.1,0.5c-0.1,0.3-0.2,0.6-0.2,0.8c0,1.6,0,3.3,0,4.9c0,0.2,0,0.4,0.1,0.5c0.1,0.3,0.2,0.6,0.2,1
	c0,2.6,0,5.2,0,7.8c0,3.1,0,6.1,0,9.2c0,0.2,0,0.4-0.1,0.6c-0.5-0.2-1-0.5-1.5-0.6c-0.2-0.1-0.4-0.3-0.6,0c-0.2,0.3-0.2,0.7,0.1,0.9
	c0.2,0.1,0.4,0.2,0.6,0.3c0.4,0.1,0.8,0.3,1.3,0.4c0.1,0,0.2,0.1,0.2,0.1c0,0.5,0,1,0,1.4c0,0.3-0.2,0.6-0.2,1c0,1.6,0,3.1,0,4.7
	c0,0.2,0,0.4,0.1,0.7c0.1,0.4,0.3,0.7,0.3,1.1c0.2,2.9,2.9,5.4,5.7,5.3c1.8,0,3.5-0.1,5.3-0.1c1.8,0,3.5,0,5.3,0.1
	c2.8,0.1,5.5-2.5,5.7-5.3c0-0.4,0.2-0.7,0.3-1.1c0-0.2,0.1-0.4,0.1-0.7c0-1.6,0-3.1,0-4.7c0-0.3-0.2-0.6-0.2-1c-0.1-0.5,0-1,0-1.4
	c0,0,0.2-0.1,0.2-0.1c0.4-0.1,0.8-0.2,1.3-0.4c0.2-0.1,0.4-0.2,0.6-0.3C117.5,93.9,117.5,93.6,117.3,93.2z M95.1,67
	c0-1.3,0.6-2.1,1.9-2.3c1.1-0.2,2.1-0.3,3.2-0.4c1.3-0.1,2.6-0.1,3.9-0.1c1.3,0,2.6,0,3.9,0.1c1.1,0.1,2.1,0.2,3.2,0.4
	c1.3,0.2,1.9,1,1.9,2.3c0,0.4,0,0.9,0,1.3c-0.8-0.1-1.6-0.3-2.3-0.4c-2.2-0.4-4.4-0.5-6.7-0.5c-2.2,0-4.5,0.1-6.7,0.5
	c-0.8,0.1-1.5,0.3-2.3,0.4C95.1,67.8,95,67.4,95.1,67z M93.9,75.9c0-1.2,0-2.3,0-3.5c0-0.7,0.3-0.9,1.1-1V81c-0.3,0-0.6,0-0.9-0.1
	c-0.1,0-0.2-0.2-0.2-0.4C93.9,79,93.9,77.5,93.9,75.9z M93.9,94.1V82c0.4,0,0.7,0,1-0.1c0.3,4.1-0.3,8.2-0.9,12.2
	C94,94.1,94,94.1,93.9,94.1z M94.7,106.6c-0.1-0.2-0.3-0.6,0.2-0.7c0.1,0,0.1-0.2,0.1-0.3c0-0.4-0.1-0.8-0.1-1.3c0,0,0.1,0,0.1-0.1
	c0.6,0.3,1.2,0.6,1.4,1.3c0.2,0.7,0.5,1.4,0.8,2C96.3,107.9,95,107.3,94.7,106.6z M108.3,97.9c-1.4,0.1-2.9,0.1-4.3,0.1
	c-1.4,0-2.9,0-4.3-0.1c-1.2-0.1-2.3-0.3-3.5-0.6c-1.1-0.2-1.5-0.9-1.4-1.9c0.3-2.2,0.6-4.5,0.9-6.7c0,0,0-0.1,0.1-0.1
	c2.7,0.4,5.5,0.6,8.2,0.5c2.7,0,5.5-0.1,8.2-0.5c0,0,0.1,0.1,0.1,0.1c0.3,2.2,0.6,4.5,0.9,6.7c0.1,1.1-0.3,1.7-1.4,1.9
	C110.7,97.6,109.5,97.9,108.3,97.9z M113.5,106.6c-0.4,0.8-1.6,1.3-2.5,1.1c0.3-0.7,0.5-1.3,0.8-2c0.2-0.7,0.8-1,1.4-1.3
	c0,0,0.1,0,0.1,0.1c0,0.4-0.1,0.8-0.1,1.3c0,0.1,0.1,0.3,0.1,0.3C113.8,106,113.6,106.3,113.5,106.6z M114.2,94.1c0,0-0.1,0-0.1,0
	c-0.6-4-1.2-8-0.9-12.2c0.3,0,0.6,0,1,0.1V94.1z M114.3,75.9c0,1.6,0,3.2,0,4.8c0,0.1-0.1,0.3-0.2,0.4c-0.3,0.1-0.6,0-0.9,0.1v-9.7
	c0.8,0.1,1.1,0.4,1.1,1C114.3,73.5,114.3,74.7,114.3,75.9z"/>
<path style="fill:#ffffff;" d="M51.6,20c0.2,0.3,0.4,0.1,0.6,0c0.5-0.2,1-0.4,1.5-0.6c0,0.2,0.1,0.4,0.1,0.6c0,3.1,0,6.1,0,9.2
	c0,2.6,0,5.2,0,7.8c0,0.3-0.1,0.6-0.2,1c0,0.2-0.1,0.4-0.1,0.5c0,1.6,0,3.3,0,4.9c0,0.3,0.2,0.6,0.2,0.8c0,0.2,0.1,0.3,0.1,0.5
	c0,0.6,0,1.1,0,1.7c0.1,2.1,1.6,3.7,3.7,3.8c2.4,0.1,4.9,0.2,7.3,0.2c2.4,0,4.9-0.1,7.3-0.2c2.1-0.1,3.6-1.7,3.7-3.8
	c0-0.6,0-1.1,0-1.7c0-0.2,0.1-0.3,0.1-0.5c0.1-0.3,0.2-0.6,0.2-0.8c0-1.6,0-3.3,0-4.9c0-0.2,0-0.4-0.1-0.5c-0.1-0.3-0.2-0.6-0.2-1
	c0-2.6,0-5.2,0-7.8c0-3.1,0-6.1,0-9.2c0-0.2,0-0.4,0.1-0.6c0.5,0.2,1,0.5,1.5,0.6c0.2,0.1,0.4,0.3,0.6,0c0.2-0.3,0.2-0.7-0.1-0.9
	c-0.2-0.1-0.4-0.2-0.6-0.3c-0.4-0.1-0.8-0.3-1.3-0.4c-0.1,0-0.2-0.1-0.2-0.1c0-0.5,0-1,0-1.4c0-0.3,0.2-0.6,0.2-1c0-1.6,0-3.1,0-4.7
	c0-0.2,0-0.4-0.1-0.7c-0.1-0.4-0.3-0.7-0.3-1.1C75.7,6.6,73,4,70.1,4.1c-1.8,0-3.5,0.1-5.3,0.1c-1.8,0-3.5,0-5.3-0.1
	c-2.8-0.1-5.5,2.5-5.7,5.3c0,0.4-0.2,0.7-0.3,1.1c0,0.2-0.1,0.4-0.1,0.7c0,1.6,0,3.1,0,4.7c0,0.3,0.2,0.6,0.2,1c0.1,0.5,0,1,0,1.4
	c0,0-0.2,0.1-0.2,0.1c-0.4,0.1-0.8,0.2-1.3,0.4c-0.2,0.1-0.4,0.2-0.6,0.3C51.5,19.3,51.5,19.6,51.6,20z M73.9,46.2
	c0,1.3-0.6,2.1-1.9,2.3c-1.1,0.2-2.1,0.3-3.2,0.4c-1.3,0.1-2.6,0.1-3.9,0.1c-1.3,0-2.6,0-3.9-0.1c-1.1-0.1-2.1-0.2-3.2-0.4
	c-1.3-0.2-1.9-1-1.9-2.3c0-0.4,0-0.9,0-1.3c0.8,0.1,1.6,0.3,2.3,0.4c2.2,0.4,4.4,0.5,6.7,0.5c2.2,0,4.5-0.1,6.7-0.5
	c0.8-0.1,1.5-0.3,2.3-0.4C73.9,45.3,73.9,45.8,73.9,46.2z M75,37.3c0,1.2,0,2.3,0,3.5c0,0.7-0.3,0.9-1.1,1v-9.7c0.3,0,0.6,0,0.9,0.1
	c0.1,0,0.2,0.2,0.2,0.4C75,34.1,75,35.7,75,37.3z M75,19.1v12.1c-0.4,0-0.7,0-1,0.1c-0.3-4.1,0.3-8.2,0.9-12.2
	C74.9,19.1,75,19.1,75,19.1z M74.3,6.6c0.1,0.2,0.3,0.6-0.2,0.7C74,7.3,74,7.5,74,7.6C74,8,74,8.4,74.1,8.9c0,0-0.1,0-0.1,0.1
	c-0.6-0.3-1.2-0.6-1.4-1.3c-0.2-0.7-0.5-1.4-0.8-2C72.6,5.3,73.9,5.8,74.3,6.6z M60.6,15.2c1.4-0.1,2.9-0.1,4.3-0.1
	c1.4,0,2.9,0,4.3,0.1c1.2,0.1,2.3,0.3,3.5,0.6c1.1,0.2,1.5,0.9,1.4,1.9c-0.3,2.2-0.6,4.5-0.9,6.7c0,0,0,0.1-0.1,0.1
	c-2.7-0.4-5.5-0.6-8.2-0.5c-2.7,0-5.5,0.1-8.2,0.5c0,0-0.1-0.1-0.1-0.1c-0.3-2.2-0.6-4.5-0.9-6.7c-0.1-1.1,0.3-1.7,1.4-1.9
	C58.2,15.6,59.4,15.3,60.6,15.2z M55.5,6.6c0.4-0.8,1.6-1.3,2.5-1.1c-0.3,0.7-0.5,1.3-0.8,2c-0.2,0.7-0.8,1-1.4,1.3
	c0,0-0.1,0-0.1-0.1c0-0.4,0.1-0.8,0.1-1.3c0-0.1-0.1-0.3-0.1-0.3C55.1,7.2,55.3,6.8,55.5,6.6z M54.7,19.1c0,0,0.1,0,0.1,0
	c0.6,4,1.2,8,0.9,12.2c-0.3,0-0.6,0-1-0.1V19.1z M54.7,37.3c0-1.6,0-3.2,0-4.8c0-0.1,0.1-0.3,0.2-0.4c0.3-0.1,0.6,0,0.9-0.1v9.7
	c-0.8-0.1-1.1-0.4-1.1-1C54.7,39.6,54.7,38.5,54.7,37.3z"/>
<path style="fill:#ffffff;" d="M13.3,20c0.2,0.3,0.4,0.1,0.6,0c0.5-0.2,1-0.4,1.5-0.6c0,0.2,0.1,0.4,0.1,0.6c0,3.1,0,6.1,0,9.2
	c0,2.6,0,5.2,0,7.8c0,0.3-0.1,0.6-0.2,1c0,0.2-0.1,0.4-0.1,0.5c0,1.6,0,3.3,0,4.9c0,0.3,0.2,0.6,0.2,0.8c0,0.2,0.1,0.3,0.1,0.5
	c0,0.6,0,1.1,0,1.7c0.1,2.1,1.6,3.7,3.7,3.8c2.4,0.1,4.9,0.2,7.3,0.2c2.4,0,4.9-0.1,7.3-0.2c2.1-0.1,3.6-1.7,3.7-3.8
	c0-0.6,0-1.1,0-1.7c0-0.2,0.1-0.3,0.1-0.5c0.1-0.3,0.2-0.6,0.2-0.8c0-1.6,0-3.3,0-4.9c0-0.2,0-0.4-0.1-0.5c-0.1-0.3-0.2-0.6-0.2-1
	c0-2.6,0-5.2,0-7.8c0-3.1,0-6.1,0-9.2c0-0.2,0-0.4,0.1-0.6c0.5,0.2,1,0.5,1.5,0.6c0.2,0.1,0.4,0.3,0.6,0c0.2-0.3,0.2-0.7-0.1-0.9
	c-0.2-0.1-0.4-0.2-0.6-0.3c-0.4-0.1-0.8-0.3-1.3-0.4c-0.1,0-0.2-0.1-0.2-0.1c0-0.5,0-1,0-1.4c0-0.3,0.2-0.6,0.2-1c0-1.6,0-3.1,0-4.7
	c0-0.2,0-0.4-0.1-0.7c-0.1-0.4-0.3-0.7-0.3-1.1c-0.2-2.9-2.9-5.4-5.7-5.3c-1.8,0-3.5,0.1-5.3,0.1c-1.8,0-3.5,0-5.3-0.1
	c-2.8-0.1-5.5,2.5-5.7,5.3c0,0.4-0.2,0.7-0.3,1.1c0,0.2-0.1,0.4-0.1,0.7c0,1.6,0,3.1,0,4.7c0,0.3,0.2,0.6,0.2,1c0.1,0.5,0,1,0,1.4
	c0,0-0.2,0.1-0.2,0.1c-0.4,0.1-0.8,0.2-1.3,0.4c-0.2,0.1-0.4,0.2-0.6,0.3C13.2,19.3,13.2,19.6,13.3,20z M35.6,46.2
	c0,1.3-0.6,2.1-1.9,2.3c-1.1,0.2-2.1,0.3-3.2,0.4c-1.3,0.1-2.6,0.1-3.9,0.1c-1.3,0-2.6,0-3.9-0.1c-1.1-0.1-2.1-0.2-3.2-0.4
	c-1.3-0.2-1.9-1-1.9-2.3c0-0.4,0-0.9,0-1.3c0.8,0.1,1.6,0.3,2.3,0.4c2.2,0.4,4.4,0.5,6.7,0.5c2.2,0,4.5-0.1,6.7-0.5
	c0.8-0.1,1.5-0.3,2.3-0.4C35.6,45.3,35.6,45.8,35.6,46.2z M36.7,37.3c0,1.2,0,2.3,0,3.5c0,0.7-0.3,0.9-1.1,1v-9.7
	c0.3,0,0.6,0,0.9,0.1c0.1,0,0.2,0.2,0.2,0.4C36.7,34.1,36.7,35.7,36.7,37.3z M36.7,19.1v12.1c-0.4,0-0.7,0-1,0.1
	c-0.3-4.1,0.3-8.2,0.9-12.2C36.6,19.1,36.7,19.1,36.7,19.1z M36,6.6c0.1,0.2,0.3,0.6-0.2,0.7c-0.1,0-0.1,0.2-0.1,0.3
	c0,0.4,0.1,0.8,0.1,1.3c0,0-0.1,0-0.1,0.1c-0.6-0.3-1.2-0.6-1.4-1.3c-0.2-0.7-0.5-1.4-0.8-2C34.3,5.3,35.6,5.8,36,6.6z M22.3,15.2
	c1.4-0.1,2.9-0.1,4.3-0.1c1.4,0,2.9,0,4.3,0.1c1.2,0.1,2.3,0.3,3.5,0.6c1.1,0.2,1.5,0.9,1.4,1.9c-0.3,2.2-0.6,4.5-0.9,6.7
	c0,0,0,0.1-0.1,0.1c-2.7-0.4-5.5-0.6-8.2-0.5c-2.7,0-5.5,0.1-8.2,0.5c0,0-0.1-0.1-0.1-0.1c-0.3-2.2-0.6-4.5-0.9-6.7
	c-0.1-1.1,0.3-1.7,1.4-1.9C19.9,15.6,21.1,15.3,22.3,15.2z M17.1,6.6c0.4-0.8,1.6-1.3,2.5-1.1c-0.3,0.7-0.5,1.3-0.8,2
	c-0.2,0.7-0.8,1-1.4,1.3c0,0-0.1,0-0.1-0.1c0-0.4,0.1-0.8,0.1-1.3c0-0.1-0.1-0.3-0.1-0.3C16.8,7.2,17,6.8,17.1,6.6z M16.4,19.1
	c0,0,0.1,0,0.1,0c0.6,4,1.2,8,0.9,12.2c-0.3,0-0.6,0-1-0.1V19.1z M16.4,37.3c0-1.6,0-3.2,0-4.8c0-0.1,0.1-0.3,0.2-0.4
	c0.3-0.1,0.6,0,0.9-0.1v9.7c-0.8-0.1-1.1-0.4-1.1-1C16.4,39.6,16.4,38.5,16.4,37.3z"/>
<line style="fill:none;stroke:#ffffff;stroke-width:2;stroke-linecap:round;stroke-linejoin:round;stroke-miterlimit:10;" x1="1" y1="57.8" x2="127.9" y2="57.8"/>
<line style="fill:none;stroke:#ffffff;stroke-width:2;stroke-linecap:round;stroke-linejoin:round;stroke-miterlimit:10;" x1="86.5" y1="114.5" x2="86.5" y2="1"/>
<line style="fill:none;stroke:#ffffff;stroke-width:2;stroke-linecap:round;stroke-linejoin:round;stroke-miterlimit:10;" x1="45.8" y1="114.5" x2="45.8" y2="1"/>
</svg>
