<svg version="1.1" id="Layer_1" xmlns="http://www.w3.org/2000/svg" xmlns:xlink="http://www.w3.org/1999/xlink" x="0px" y="0px"
	 viewBox="0 0 119.4 104.6" style="enable-background:new 0 0 119.4 104.6;" xml:space="preserve">
<g id="Group_172_1_" transform="translate(340.004 20.94)">
	<path id="Path_262_1_" style="fill:#ffffff;" d="M-326,7.3v-17.6h6.3c2.1,0,3.6,0.4,4.6,1.3c1,0.9,1.5,2.2,1.5,3.9
		c0,1.7-0.5,3-1.5,3.9c-1,0.9-2.4,1.3-4.3,1.3h-3.3v7.1H-326z M-322.6-2.6h2.5c1.2,0,2.1-0.2,2.6-0.6c0.5-0.5,0.8-1.2,0.8-1.9
		c0.1-0.7-0.2-1.4-0.8-1.9c-0.5-0.4-1.4-0.6-2.6-0.6h-2.5V-2.6z"/>
</g>
<g id="Group_173_1_" transform="translate(347.124 68.029)">
	<rect id="Rectangle_239_1_" x="-329.3" y="-32.2" style="fill:#ffffff;" width="1.9" height="67.8"/>
</g>
<rect id="Rectangle_240_1_" x="1" y="1" style="fill:none;stroke:#ffffff;stroke-width:2;stroke-miterlimit:10;" width="35.7" height="35.7"/>
<path id="Path_264_1_" style="fill:#ffffff;" d="M113.5,62.4c-0.3-1.6-1.2-2.6-2.8-2.9c-0.8-0.2-1.6-0.2-2.5-0.2
	c-1,0.1-1.4,0.6-1.4,1.6c0,0.7,0.1,1.5,0.1,2.3c-0.6,0-1.1-0.1-1.6-0.2c-0.2,0-0.3-0.4-0.3-0.6c-0.9-3.4-2-6.6-3.4-9.8
	c-0.1-0.1-0.1-0.3-0.2-0.4c-1.6-3.9-4.7-5.5-8.7-5.9c-4.9-0.5-9.9-0.8-14.8-0.8h0c-4.9,0-9.9,0.2-14.8,0.8c-4,0.4-7.1,2-8.7,5.9
	c-0.1,0.1-0.1,0.3-0.2,0.4c-1.4,3.2-2.6,6.4-3.4,9.8c-0.1,0.2-0.2,0.6-0.3,0.6c-0.5,0.1-1.1,0.2-1.6,0.2c0-0.9,0.1-1.6,0.1-2.3
	c0-1-0.4-1.5-1.4-1.6c-0.8-0.1-1.7,0-2.5,0.2c-1.6,0.3-2.5,1.4-2.8,2.9c-0.2,1.2,0.2,1.9,1.4,2.1c0.9,0.2,1.8,0.3,2.8,0.3
	c0.7-0.1,1.4-0.2,2.1-0.3c0.3,0,0.5,0.1,0.7,0.2c0.1,0.2,0.1,0.4,0,0.7c-0.4,0.7-0.8,1.5-1.2,2.2c-0.9,1.9-1.4,4-1.4,6.2
	c-0.1,0.7-0.2,1.3-0.5,1.9c-0.3,0.6-0.5,1.3-0.6,1.9c-0.1,1.7-0.1,3.4-0.1,5.1c0,1.5,0.2,3,0.2,4.4c0,4.5-0.1,9.1-0.1,13.6
	c0,0.5,0.1,0.9,0.2,1.3c0.2,1,1.1,1.7,2.1,1.6c1.1,0,2.2-0.1,3.2,0c1.7,0.1,2.1-0.7,2.2-2.1c0.1-0.7,0-1.4,0-2.1c1.2,0,2.2,0,3.3,0
	c0.4,0,0.8-0.1,1.1-0.3c0.7-0.5,1.5-0.8,2.4-0.7c5.9,0,11.9,0,17.8,0h0c5.9,0,11.9,0,17.8,0c0.9-0.1,1.7,0.2,2.4,0.7
	c0.3,0.2,0.7,0.3,1.1,0.3c1,0,2.1,0,3.3,0c0,0.7,0,1.5,0,2.1c0.1,1.4,0.4,2.2,2.2,2.1c1.1-0.1,2.2,0,3.2,0c1,0.1,1.9-0.6,2.1-1.6
	c0.1-0.4,0.2-0.9,0.2-1.3c0-4.5-0.1-9.1-0.1-13.6c0-1.5,0.2-3,0.2-4.4c0-1.7,0-3.4-0.1-5.1c-0.1-0.7-0.3-1.3-0.6-1.9
	c-0.2-0.6-0.4-1.3-0.5-1.9c0-2.1-0.5-4.3-1.4-6.2c-0.4-0.7-0.8-1.5-1.2-2.2c-0.1-0.2-0.1-0.5,0-0.7c0.2-0.2,0.5-0.2,0.7-0.2
	c0.7,0.1,1.4,0.2,2.1,0.3c0.9,0,1.9-0.1,2.8-0.3C113.3,64.2,113.7,63.5,113.5,62.4z M55,58c0.8-2.4,1.6-4.7,2.3-7
	c0.3-1.4,1.5-2.3,2.9-2.4c2.6-0.3,5.2-0.5,7.8-0.7c3.3-0.2,6.5-0.3,9.8-0.3c3.3,0,6.5,0.1,9.8,0.3c2.6,0.2,5.2,0.4,7.8,0.7
	c1.4,0.1,2.6,1.1,2.9,2.4c0.7,2.4,1.6,4.7,2.3,7c0.5,1.6,1,3.3,1.5,5.1c-0.5,0.1-0.9,0.1-1.2,0.1c-1.8,0.1-3.6,0.2-5.5,0.2
	c-5.9,0-11.7-0.1-17.6-0.1h0c-5.9,0-11.7,0.1-17.6,0.1c-1.8,0-3.6-0.1-5.5-0.2c-0.4,0-0.8-0.1-1.2-0.1C54,61.3,54.4,59.6,55,58z
	 M77.8,82c-3,0.1-6-0.1-9-0.5c-1.7-0.2-3.3-0.7-4.8-1.5c-1.8-1.1-3-3.1-2.9-5.2c0-0.6,0.2-0.9,0.7-0.9c0.5-0.1,1-0.1,1.5-0.1
	c4.7,0,9.3,0,14,0h0.9c4.7,0,9.3,0,14,0c0.5,0,1,0.1,1.5,0.1c0.5,0.1,0.7,0.4,0.7,0.9c0,2.1-1.1,4.1-2.9,5.2
	c-1.5,0.9-3.1,1.4-4.8,1.5C83.8,81.9,80.8,82.1,77.8,82L77.8,82z M49.9,74.7c-0.1-1,0-2,0.1-3c0.1-1.4,1.2-2.5,2.6-2.5
	c2-0.1,3.9,0.3,5.6,1.3c1.3,0.7,1.5,2.1,1.7,3.4c0.1,0.9,0.2,1.8,0.2,2.7c0.1,1.5-0.5,2.1-2,2.1c-0.3,0-0.6,0-0.9,0c0,0,0,0,0,0.1
	c-1.4-0.2-2.8-0.2-4.2-0.5C50.8,77.9,50,77.1,49.9,74.7L49.9,74.7z M52.3,81.5c-0.1,0-0.2,0-0.4-0.1c-0.5-0.2-1.1-0.3-0.9-0.9
	c0.1-0.3,0.7-0.5,1.1-0.5c1.1,0,2.3,0.1,3.4,0.2c0.4,0,0.9,0.1,0.9,0.7c0,0.5-0.4,0.7-0.9,0.7c-0.3,0-0.6,0-0.8,0v0L52.3,81.5z
	 M99.8,92.4c-0.7,0.2-1.4,0.3-2.1,0.4c-4.6,0.3-9.3,0.6-13.9,0.8c-2,0.1-4,0.1-6,0.1c-2,0-4,0-6-0.1c-4.6-0.1-9.3-0.5-13.9-0.8
	c-0.7-0.1-1.4-0.2-2.1-0.4c-0.8-0.2-1.6-0.5-1.7-1.5c-0.1-0.8,0.8-2.1,1.6-2.3c0.5-0.1,0.9-0.2,1.4-0.2c6.7,0,13.3,0,20,0h1.4
	c6.7,0,13.3,0,20,0c0.5,0,1,0,1.4,0.2c0.8,0.2,1.7,1.5,1.6,2.3C101.4,91.9,100.6,92.2,99.8,92.4L99.8,92.4z M103.6,81.4
	c-0.1,0-0.2,0.1-0.4,0.1l-2.4,0.2v0c-0.3,0-0.6,0-0.8,0c-0.5,0-0.9-0.2-0.9-0.7c0-0.6,0.4-0.6,0.9-0.7c1.2-0.1,2.3-0.2,3.4-0.2
	c0.4,0,1,0.2,1.1,0.5C104.7,81.1,104.1,81.3,103.6,81.4L103.6,81.4z M105.7,74.7c-0.2,2.3-0.9,3.2-3.2,3.6c-1.4,0.3-2.8,0.3-4.2,0.5
	c0,0,0,0,0-0.1c-0.3,0-0.6,0-0.9,0c-1.5,0-2-0.7-2-2.1c0-0.9,0.1-1.8,0.2-2.7c0.2-1.3,0.4-2.7,1.7-3.4c1.7-1,3.7-1.5,5.6-1.3
	c1.4,0,2.5,1.1,2.6,2.5C105.8,72.7,105.8,73.7,105.7,74.7L105.7,74.7z"/>
<line style="fill:none;stroke:#ffffff;stroke-width:2;stroke-linecap:round;stroke-miterlimit:10;" x1="37.3" y1="103.6" x2="118.4" y2="103.6"/>
<line style="fill:none;stroke:#ffffff;stroke-width:2;stroke-linecap:round;stroke-miterlimit:10;" x1="7.1" y1="103.6" x2="30.6" y2="103.6"/>
</svg>
